
<svg width="194.736" height="33.99" viewBox="0 0 194.736 33.99" xmlns="http://www.w3.org/2000/svg"><g id="svgGroup" stroke-linecap="round" fill-rule="evenodd" font-size="9pt" stroke="#1f3e76" stroke-width="0.25mm" fill="#1f3e76" style="stroke:#1f3e76;stroke-width:0.25mm;fill:#1f3e76"><path d="M 71.536 24.36 Q 70.936 24.36 70.436 23.62 A 3.976 3.976 0 0 1 70.04 22.859 Q 69.891 22.482 69.786 22.034 A 7.555 7.555 0 0 1 69.716 21.7 A 9.717 9.717 0 0 1 69.555 19.916 A 10.829 10.829 0 0 1 69.576 19.24 A 19.367 19.367 0 0 1 69.59 18.489 Q 69.619 17.741 69.71 17.215 A 5.659 5.659 0 0 1 69.716 17.18 Q 69.856 16.4 70.016 15.64 Q 70.136 15.4 70.156 15.24 Q 70.176 15.08 70.236 14.72 Q 70.291 14.388 70.465 13.65 A 55.589 55.589 0 0 1 70.496 13.52 Q 70.611 13.031 70.726 12.665 A 6.502 6.502 0 0 1 70.816 12.4 Q 70.976 11.96 71.136 11.8 Q 71.336 11.56 71.656 11.5 Q 71.976 11.44 72.296 11.56 A 1.007 1.007 0 0 1 72.751 11.905 A 1.287 1.287 0 0 1 72.816 12 A 0.504 0.504 0 0 1 72.942 12.168 Q 73.026 12.34 73.058 12.629 A 3.333 3.333 0 0 1 73.076 12.9 A 7.031 7.031 0 0 1 73.079 13.101 Q 73.079 13.706 72.976 14.34 Q 72.873 14.978 72.68 15.303 A 1.057 1.057 0 0 1 72.616 15.4 Q 72.552 15.561 72.474 16.138 A 20.388 20.388 0 0 0 72.436 16.44 Q 72.336 17.28 72.236 18.2 A 24.176 24.176 0 0 1 72.172 18.74 Q 72.101 19.277 72.021 19.655 A 7.076 7.076 0 0 1 72.016 19.68 A 2.869 2.869 0 0 0 71.986 19.924 Q 71.962 20.219 72.012 20.46 A 1.235 1.235 0 0 0 72.156 20.84 A 0.471 0.471 0 0 0 72.294 20.992 Q 72.559 21.174 73.079 20.902 A 2.618 2.618 0 0 0 73.156 20.86 Q 73.842 20.47 74.959 18.894 A 23.971 23.971 0 0 0 75.136 18.64 Q 75.853 17.616 76.279 16.912 A 14.136 14.136 0 0 0 76.416 16.68 A 12.546 12.546 0 0 0 76.806 15.956 Q 76.984 15.595 77.116 15.26 Q 77.376 14.6 77.656 13.84 A 16.036 16.036 0 0 1 77.802 13.393 Q 77.874 13.185 77.943 13.008 A 7.252 7.252 0 0 1 78.036 12.78 Q 78.17 12.466 78.294 12.32 A 0.51 0.51 0 0 1 78.376 12.24 A 0.897 0.897 0 0 1 78.903 12.073 Q 78.907 12.073 78.912 12.073 A 1.183 1.183 0 0 1 79.035 12.08 Q 79.416 12.12 79.896 12.44 A 1.626 1.626 0 0 1 80.276 13.014 A 1.58 1.58 0 0 1 80.376 13.58 A 2.323 2.323 0 0 1 80.319 14.069 Q 80.214 14.554 79.916 15.161 A 7.691 7.691 0 0 1 79.896 15.2 A 7.264 7.264 0 0 0 79.659 15.731 Q 79.464 16.215 79.276 16.84 Q 78.976 17.84 78.796 18.86 A 15.955 15.955 0 0 0 78.701 19.46 Q 78.619 20.06 78.616 20.491 A 4.639 4.639 0 0 0 78.616 20.52 A 4.568 4.568 0 0 0 78.624 20.797 Q 78.65 21.231 78.767 21.393 A 0.254 0.254 0 0 0 78.836 21.46 A 0.87 0.87 0 0 0 79.133 21.577 A 1.22 1.22 0 0 0 79.376 21.6 A 1.63 1.63 0 0 0 79.747 21.554 Q 80.095 21.472 80.522 21.247 A 5.247 5.247 0 0 0 80.536 21.24 Q 81.216 20.88 82.056 20 Q 82.416 19.64 82.936 18.94 A 25.965 25.965 0 0 0 83.893 17.557 A 28.464 28.464 0 0 0 83.956 17.46 A 39.398 39.398 0 0 0 84.309 16.9 Q 84.48 16.622 84.628 16.371 A 21.201 21.201 0 0 0 84.796 16.08 A 9.536 9.536 0 0 0 84.912 15.87 Q 85.134 15.454 85.136 15.322 A 0.155 0.155 0 0 0 85.136 15.32 A 0.471 0.471 0 0 1 85.164 15.169 Q 85.237 14.956 85.496 14.64 Q 85.68 14.395 85.805 14.232 A 19.08 19.08 0 0 1 85.876 14.14 A 0.759 0.759 0 0 1 85.982 14.031 Q 86.135 13.901 86.416 13.76 A 1.086 1.086 0 0 1 86.559 13.7 Q 86.675 13.662 86.78 13.662 A 0.506 0.506 0 0 1 86.976 13.7 A 0.927 0.927 0 0 1 87.146 13.795 Q 87.312 13.91 87.496 14.12 Q 87.696 14.28 87.716 14.6 A 8.213 8.213 0 0 1 87.725 14.77 Q 87.736 15.031 87.736 15.377 A 22.925 22.925 0 0 1 87.736 15.4 A 8.263 8.263 0 0 1 87.647 15.7 Q 87.542 16.035 87.379 16.477 A 26.616 26.616 0 0 1 87.356 16.54 Q 87.096 17.24 86.796 17.86 Q 86.496 18.48 86.296 18.72 Q 86.136 18.88 85.736 19.3 Q 85.336 19.72 85.016 20.2 A 35.82 35.82 0 0 1 84.578 20.716 Q 84.03 21.349 83.705 21.648 A 3.023 3.023 0 0 1 83.576 21.76 Q 83.165 22.096 82.859 22.397 A 7.422 7.422 0 0 0 82.816 22.44 A 6.858 6.858 0 0 1 81.915 23.204 A 5.371 5.371 0 0 1 81.056 23.7 Q 80.152 24.113 79.345 24.12 A 3.207 3.207 0 0 1 79.316 24.12 Q 78.496 24.12 77.936 23.72 A 2.245 2.245 0 0 1 77.088 22.992 Q 76.8 22.568 76.724 21.995 A 3.286 3.286 0 0 1 76.696 21.56 A 1.768 1.768 0 0 0 76.665 21.221 A 1.436 1.436 0 0 0 76.596 20.98 L 76.496 20.72 A 0.864 0.864 0 0 0 76.38 20.729 Q 76.251 20.746 76.076 20.8 A 0.526 0.526 0 0 0 75.912 20.889 Q 75.774 20.995 75.631 21.208 A 2.835 2.835 0 0 0 75.536 21.36 A 3.966 3.966 0 0 1 75.141 21.959 Q 74.835 22.346 74.396 22.74 A 10.077 10.077 0 0 1 73.413 23.521 A 8.335 8.335 0 0 1 72.816 23.9 Q 72.14 24.289 71.693 24.349 A 1.175 1.175 0 0 1 71.536 24.36 Z M 28.136 20.2 L 28.376 20.2 Q 27.496 20.76 26.816 21.48 A 4.709 4.709 0 0 1 25.711 22.338 A 5.864 5.864 0 0 1 25.096 22.64 Q 24.856 22.92 23.916 22.98 A 5.178 5.178 0 0 1 23.586 22.991 A 4.885 4.885 0 0 1 22.096 22.76 Q 21.546 22.446 21.286 22.286 A 9.088 9.088 0 0 1 21.276 22.28 Q 21.016 22.12 20.876 21.84 Q 20.739 21.565 20.505 20.982 A 31.407 31.407 0 0 1 20.496 20.96 A 1.508 1.508 0 0 1 20.393 20.647 Q 20.278 20.126 20.382 19.258 A 9.492 9.492 0 0 1 20.416 19 A 12.759 12.759 0 0 1 21.072 16.45 A 14.082 14.082 0 0 1 21.136 16.28 A 9.151 9.151 0 0 1 21.64 15.374 Q 21.924 14.923 22.286 14.443 A 16.877 16.877 0 0 1 22.536 14.12 A 17.417 17.417 0 0 1 24.431 12.079 A 16.163 16.163 0 0 1 24.496 12.02 A 8.258 8.258 0 0 1 25.126 11.501 Q 25.793 11.009 26.366 10.843 A 2.475 2.475 0 0 1 26.376 10.84 A 2.353 2.353 0 0 1 26.982 10.637 A 2.681 2.681 0 0 1 27.076 10.62 Q 27.456 10.56 28.176 10.76 A 4.3 4.3 0 0 1 28.57 10.824 Q 28.962 10.907 29.208 11.055 A 1.262 1.262 0 0 1 29.216 11.06 A 3.596 3.596 0 0 1 29.423 11.199 Q 29.776 11.45 30.376 11.96 A 7.405 7.405 0 0 1 30.878 12.513 A 5.745 5.745 0 0 1 31.236 13 Q 31.576 13.52 31.776 14.08 Q 32.056 14.68 31.996 15.18 Q 31.942 15.629 31.614 16.095 A 3.177 3.177 0 0 1 31.536 16.2 Q 31.176 16.72 30.776 17.24 A 2.608 2.608 0 0 0 30.484 17.729 Q 30.366 17.981 30.275 18.289 A 5.58 5.58 0 0 0 30.176 18.68 A 18.844 18.844 0 0 1 29.955 19.787 Q 29.826 20.349 29.655 20.964 A 31.928 31.928 0 0 1 29.536 21.38 Q 29.096 22.88 28.776 24.16 L 28.136 26.64 A 51.545 51.545 0 0 1 27.581 28.415 Q 26.883 30.507 26.236 31.7 A 11.474 11.474 0 0 1 25.792 32.454 Q 25.136 33.47 24.536 33.8 A 2.672 2.672 0 0 1 23.551 33.99 Q 23.117 33.99 22.669 33.848 A 3.724 3.724 0 0 1 22.196 33.66 A 5.186 5.186 0 0 1 20.557 32.419 A 6.474 6.474 0 0 1 20.096 31.84 A 2.49 2.49 0 0 1 20.001 31.684 Q 19.874 31.459 19.716 31.1 Q 19.496 30.6 19.316 30.08 A 5.513 5.513 0 0 1 19.201 29.707 Q 19.121 29.41 19.096 29.16 Q 19.056 28.76 19.176 28.68 A 0.284 0.284 0 0 1 19.293 28.611 Q 19.404 28.575 19.576 28.6 A 1.38 1.38 0 0 1 20.051 28.762 A 1.61 1.61 0 0 1 20.116 28.8 A 0.939 0.939 0 0 1 20.292 28.937 A 0.672 0.672 0 0 1 20.456 29.2 A 3.798 3.798 0 0 0 20.545 29.391 Q 20.65 29.602 20.813 29.88 A 12.961 12.961 0 0 0 20.836 29.92 A 5.15 5.15 0 0 0 21.375 30.673 A 4.754 4.754 0 0 0 21.416 30.72 A 3.901 3.901 0 0 0 21.548 30.862 Q 21.771 31.089 21.896 31.12 A 5.955 5.955 0 0 0 22.218 31.262 Q 22.729 31.468 23.007 31.441 A 0.606 0.606 0 0 0 23.016 31.44 A 1.349 1.349 0 0 0 23.565 31.259 A 1.318 1.318 0 0 0 23.656 31.2 A 3.897 3.897 0 0 0 24.572 30.192 A 4.704 4.704 0 0 0 24.776 29.84 A 8.072 8.072 0 0 0 25.033 29.295 Q 25.294 28.69 25.591 27.807 A 36.471 36.471 0 0 0 25.776 27.24 Q 26.216 25.76 26.676 24.1 Q 27.092 22.6 27.425 21.705 A 12.277 12.277 0 0 1 27.496 21.52 A 4.514 4.514 0 0 1 27.612 21.127 Q 27.695 20.891 27.796 20.7 A 3.599 3.599 0 0 1 27.906 20.506 Q 28.013 20.331 28.113 20.224 A 0.969 0.969 0 0 1 28.136 20.2 Z M 133.216 22.08 L 133.296 21.24 L 131.736 22.48 A 12.413 12.413 0 0 1 130.648 23.343 Q 130.072 23.746 129.516 24.019 A 6.698 6.698 0 0 1 129.116 24.2 Q 128.171 24.59 127.395 24.687 A 4.004 4.004 0 0 1 126.896 24.72 A 2.792 2.792 0 0 1 126.263 24.522 A 3.36 3.36 0 0 1 126.016 24.4 Q 125.576 24.16 125.236 23.8 A 3.348 3.348 0 0 1 124.842 23.298 A 2.892 2.892 0 0 1 124.696 23.04 Q 124.487 22.552 124.536 21.76 A 5.754 5.754 0 0 1 124.556 21.52 Q 124.656 20.56 125.036 19.42 Q 125.416 18.28 125.996 17.18 A 9.808 9.808 0 0 1 126.923 15.733 A 8.582 8.582 0 0 1 127.336 15.24 A 8.954 8.954 0 0 1 128.137 14.19 Q 128.592 13.683 129.068 13.346 A 3.698 3.698 0 0 1 130.176 12.8 A 3.614 3.614 0 0 1 131.185 12.653 Q 132.189 12.653 133.176 13.24 A 14.886 14.886 0 0 0 133.51 13.377 Q 134.242 13.666 134.465 13.641 A 0.253 0.253 0 0 0 134.476 13.64 A 0.237 0.237 0 0 0 134.612 13.557 Q 134.79 13.363 134.936 12.72 Q 135.096 12.08 135.256 11.42 A 14.786 14.786 0 0 1 135.376 10.963 Q 135.529 10.41 135.776 9.64 A 105.33 105.33 0 0 1 136.26 8.203 Q 136.961 6.17 137.516 4.88 A 134.355 134.355 0 0 1 138.051 3.652 Q 138.481 2.68 138.856 1.88 Q 139.263 1.028 139.551 0.777 A 0.672 0.672 0 0 1 139.596 0.74 A 1.036 1.036 0 0 1 139.819 0.614 Q 139.966 0.554 140.118 0.554 A 0.789 0.789 0 0 1 140.216 0.56 A 1.15 1.15 0 0 1 140.931 0.809 A 1.504 1.504 0 0 1 141.016 0.88 Q 141.374 1.198 141.573 1.752 A 3.016 3.016 0 0 1 141.576 1.76 A 2.064 2.064 0 0 1 141.657 1.971 Q 141.73 2.199 141.716 2.38 A 0.924 0.924 0 0 1 141.685 2.55 Q 141.625 2.771 141.456 3.08 A 23.082 23.082 0 0 0 141.077 3.813 Q 140.886 4.198 140.676 4.65 A 57.121 57.121 0 0 0 140.236 5.62 Q 139.536 7.2 138.836 9.08 Q 138.136 10.96 137.536 12.8 Q 137.124 14.065 136.806 15.122 A 68.938 68.938 0 0 0 136.536 16.04 A 11.642 11.642 0 0 0 136.371 16.734 Q 136.301 17.072 136.237 17.458 A 25.958 25.958 0 0 0 136.116 18.28 Q 135.936 19.64 135.816 21.06 A 47.844 47.844 0 0 0 135.73 22.241 Q 135.698 22.781 135.684 23.264 A 27.324 27.324 0 0 0 135.676 23.58 A 25.342 25.342 0 0 0 135.673 23.789 Q 135.664 24.712 135.736 25 A 8.549 8.549 0 0 1 135.833 25.348 Q 135.958 25.838 135.958 26.136 A 1.281 1.281 0 0 1 135.956 26.2 Q 135.936 26.6 135.736 26.74 A 0.73 0.73 0 0 1 135.579 26.821 Q 135.392 26.893 135.096 26.92 Q 134.576 27.04 134.236 26.78 Q 133.896 26.52 133.736 26.04 A 9.329 9.329 0 0 1 133.394 24.755 A 11.372 11.372 0 0 1 133.276 24.02 Q 133.149 23.02 133.203 22.235 A 6.073 6.073 0 0 1 133.216 22.08 Z M 120.764 24.32 A 3.741 3.741 0 0 0 120.776 24.32 Q 121.074 24.246 121.25 24.115 A 0.596 0.596 0 0 0 121.496 23.74 Q 121.557 23.42 121.293 23.065 A 2.065 2.065 0 0 0 121.096 22.84 A 1.949 1.949 0 0 1 121.016 22.755 Q 120.819 22.533 120.636 22.2 A 3.042 3.042 0 0 1 120.58 22.093 Q 120.501 21.935 120.451 21.786 A 1.631 1.631 0 0 1 120.376 21.46 A 1.135 1.135 0 0 1 120.374 21.444 Q 120.341 21.12 120.536 21.12 L 120.536 21.1 L 120.536 20.92 A 0.403 0.403 0 0 1 120.483 20.917 Q 120.372 20.902 120.356 20.82 L 120.336 20.72 A 0.247 0.247 0 0 0 120.399 20.664 Q 120.549 20.481 120.616 19.88 Q 120.696 19.16 120.676 18.28 A 6.085 6.085 0 0 0 120.676 18.278 Q 120.663 17.702 120.589 17.28 A 3.269 3.269 0 0 0 120.496 16.88 Q 120.456 16.72 120.436 16.56 Q 120.416 16.4 120.416 16.24 A 0.826 0.826 0 0 0 120.378 16.126 Q 120.298 15.932 120.104 15.694 A 3.955 3.955 0 0 0 119.896 15.46 Q 119.456 15 118.956 14.66 A 3.658 3.658 0 0 0 118.836 14.582 Q 118.417 14.32 118.136 14.32 A 0.363 0.363 0 0 0 118.133 14.32 Q 117.973 14.321 117.616 14.46 A 8.81 8.81 0 0 0 117.482 14.513 A 7.849 7.849 0 0 0 116.936 14.76 Q 116.536 14.84 115.716 15.34 A 26.103 26.103 0 0 0 115.412 15.528 A 23.212 23.212 0 0 0 114.176 16.36 A 28.806 28.806 0 0 0 113.93 16.54 Q 113.419 16.917 113.256 17.08 Q 113.016 17.23 112.652 17.481 A 35.846 35.846 0 0 0 112.396 17.66 Q 111.856 18.04 111.436 18.32 L 111.016 18.6 A 0.657 0.657 0 0 1 111.018 18.544 Q 111.029 18.416 111.088 18.24 A 2.858 2.858 0 0 1 111.156 18.06 A 23.93 23.93 0 0 1 111.229 17.884 Q 111.318 17.673 111.445 17.381 A 101.24 101.24 0 0 1 111.576 17.08 A 19.673 19.673 0 0 0 111.994 16.372 Q 112.764 14.999 112.876 14.18 A 2.428 2.428 0 0 0 112.899 13.849 Q 112.899 13.357 112.695 12.879 A 3.289 3.289 0 0 0 112.296 12.2 A 2.558 2.558 0 0 0 112.232 12.118 Q 111.897 11.708 111.496 11.58 A 0.975 0.975 0 0 0 111.404 11.556 Q 111.147 11.501 110.933 11.612 A 0.812 0.812 0 0 0 110.736 11.76 A 0.332 0.332 0 0 0 110.55 11.816 A 0.449 0.449 0 0 0 110.456 11.9 A 0.432 0.432 0 0 0 110.41 11.965 Q 110.364 12.044 110.366 12.129 A 0.327 0.327 0 0 0 110.376 12.2 A 9.948 9.948 0 0 1 110.33 12.641 Q 110.286 12.982 110.221 13.275 A 4.788 4.788 0 0 1 110.076 13.8 A 4.393 4.393 0 0 1 110.055 13.859 Q 109.904 14.279 109.613 14.831 A 15.341 15.341 0 0 1 109.296 15.4 A 58.439 58.439 0 0 0 109.259 15.486 Q 109.127 15.789 108.982 16.131 A 99.899 99.899 0 0 0 108.676 16.86 A 13.013 13.013 0 0 0 108.588 17.076 Q 108.325 17.745 108.256 18.16 Q 107.936 18.64 107.796 19.04 Q 107.656 19.44 107.456 19.44 A 2.201 2.201 0 0 0 107.423 19.528 Q 107.365 19.696 107.27 20.021 A 30.639 30.639 0 0 0 107.196 20.28 Q 107.016 20.92 106.896 21.56 Q 106.776 22.2 106.776 22.4 Q 106.856 22.56 107.136 22.86 Q 107.416 23.16 107.696 23.48 Q 108.096 23.8 108.316 23.94 A 0.414 0.414 0 0 0 108.543 24.005 Q 108.633 24.005 108.735 23.971 A 0.954 0.954 0 0 0 108.856 23.92 Q 109.174 23.92 109.354 23.427 A 1.868 1.868 0 0 0 109.356 23.42 Q 109.492 23.041 110.031 22.398 A 13.051 13.051 0 0 1 110.416 21.96 Q 111.536 21 112.796 20.12 A 78.132 78.132 0 0 1 113.574 19.584 A 66.272 66.272 0 0 1 115.216 18.5 A 218.502 218.502 0 0 1 115.456 18.347 Q 116.452 17.714 117.096 17.32 Q 117.632 17.019 117.957 17.04 A 0.544 0.544 0 0 1 118.076 17.06 Q 118.347 17.14 118.427 17.664 A 2.926 2.926 0 0 1 118.456 17.96 A 21.458 21.458 0 0 0 118.459 18.312 A 17.615 17.615 0 0 0 118.476 18.86 Q 118.489 19.137 118.424 19.301 A 0.405 0.405 0 0 1 118.336 19.44 A 0.385 0.385 0 0 0 118.321 19.467 Q 118.216 19.679 118.216 20.26 A 8.271 8.271 0 0 0 118.23 20.736 A 10.076 10.076 0 0 0 118.316 21.58 Q 118.416 22.28 118.576 22.84 Q 118.774 23.281 119.021 23.582 A 1.936 1.936 0 0 0 119.456 23.98 A 1.798 1.798 0 0 0 119.602 24.066 Q 120.08 24.318 120.764 24.32 Z M 1.558 26.203 A 1.749 1.749 0 0 0 1.776 26.16 A 0.865 0.865 0 0 0 1.903 26.083 A 0.552 0.552 0 0 0 2.136 25.7 A 2.191 2.191 0 0 0 2.146 25.603 Q 2.168 25.351 2.174 24.828 A 36.389 36.389 0 0 0 2.176 24.44 A 4.981 4.981 0 0 1 2.179 24.273 Q 2.215 23.186 2.716 21.48 Q 3.256 19.64 3.896 17.44 A 47.302 47.302 0 0 0 3.913 17.395 Q 4.408 16.061 4.51 15.537 A 1.198 1.198 0 0 0 4.536 15.32 L 4.556 15.1 A 0.513 0.513 0 0 1 4.563 15.048 Q 4.584 14.942 4.647 14.903 A 0.165 0.165 0 0 1 4.736 14.88 A 0.918 0.918 0 0 0 4.79 14.822 Q 4.837 14.766 4.866 14.71 A 0.43 0.43 0 0 0 4.916 14.56 Q 4.936 14.4 4.936 14.24 A 0.139 0.139 0 0 1 4.938 14.217 Q 4.958 14.104 5.136 13.66 Q 5.261 13.348 5.425 12.957 A 74.509 74.509 0 0 1 5.636 12.46 Q 5.936 11.76 6.216 11.14 Q 6.496 10.52 6.656 10.2 A 13.927 13.927 0 0 1 6.754 9.916 Q 6.802 9.781 6.848 9.662 A 6.762 6.762 0 0 1 6.956 9.4 Q 7.057 9.169 7.085 9.021 A 0.548 0.548 0 0 0 7.096 8.92 Q 7.096 8.76 7.456 8.06 Q 7.816 7.36 8.136 6.56 Q 8.896 4.96 9.256 4.2 Q 9.515 3.654 9.65 3.293 A 4.074 4.074 0 0 0 9.736 3.04 A 2.357 2.357 0 0 0 9.744 3.013 Q 9.802 2.812 9.83 2.581 A 3.834 3.834 0 0 0 9.856 2.12 A 7.283 7.283 0 0 0 9.855 1.987 Q 9.851 1.792 9.837 1.618 A 4.088 4.088 0 0 0 9.796 1.28 A 0.983 0.983 0 0 0 9.64 0.89 A 1.286 1.286 0 0 0 9.416 0.64 L 8.936 0.16 L 8.776 0 Q 8.616 0 8.436 0.04 A 0.717 0.717 0 0 0 8.392 0.051 A 0.586 0.586 0 0 0 8.136 0.2 A 1.125 1.125 0 0 0 8.031 0.205 Q 7.789 0.227 7.656 0.36 A 0.474 0.474 0 0 0 7.568 0.484 Q 7.529 0.561 7.511 0.66 A 1.02 1.02 0 0 0 7.496 0.84 A 0.31 0.31 0 0 1 7.496 0.852 Q 7.488 1.066 7.196 1.98 Q 7.009 2.567 6.751 3.319 A 115.508 115.508 0 0 1 6.416 4.28 Q 5.936 5.64 5.396 7.04 Q 4.856 8.44 4.396 9.58 A 38.291 38.291 0 0 1 4.188 10.086 Q 3.974 10.595 3.807 10.941 A 7.484 7.484 0 0 1 3.656 11.24 Q 3.656 11.4 3.556 11.56 A 0.732 0.732 0 0 0 3.499 11.67 A 0.55 0.55 0 0 0 3.456 11.88 A 0.549 0.549 0 0 1 3.455 11.904 Q 3.449 12.059 3.356 12.3 Q 3.298 12.45 3.274 12.581 A 0.977 0.977 0 0 0 3.256 12.76 A 0.641 0.641 0 0 0 3.213 12.808 Q 3.077 12.974 2.956 13.32 Q 2.879 13.539 2.845 13.734 A 1.75 1.75 0 0 0 2.816 14.04 A 1.317 1.317 0 0 1 2.804 14.215 A 1.471 1.471 0 0 1 2.696 14.6 A 1.097 1.097 0 0 1 2.668 14.661 Q 2.557 14.88 2.416 14.88 A 1.34 1.34 0 0 0 2.405 14.903 Q 2.336 15.046 2.167 15.47 A 51.158 51.158 0 0 0 2.076 15.7 A 21.472 21.472 0 0 0 2.059 15.743 Q 1.933 16.065 1.803 16.428 A 35.587 35.587 0 0 0 1.536 17.2 Q 1.256 18.04 1.016 18.82 A 26.939 26.939 0 0 0 0.912 19.165 Q 0.757 19.694 0.696 20 Q 0.696 20.193 0.639 20.47 A 5.19 5.19 0 0 1 0.576 20.74 Q 0.456 21.2 0.256 21.68 A 14.188 14.188 0 0 0 0.189 22.008 Q -0.003 23.012 0 23.821 A 6.029 6.029 0 0 0 0.016 24.24 Q 0.064 24.885 0.247 25.331 A 1.789 1.789 0 0 0 0.556 25.84 Q 0.948 26.283 1.558 26.203 Z M 52.998 26.203 A 1.749 1.749 0 0 0 53.216 26.16 A 0.865 0.865 0 0 0 53.343 26.083 A 0.552 0.552 0 0 0 53.576 25.7 A 2.191 2.191 0 0 0 53.586 25.603 Q 53.608 25.351 53.614 24.828 A 36.389 36.389 0 0 0 53.616 24.44 A 4.981 4.981 0 0 1 53.619 24.273 Q 53.655 23.186 54.156 21.48 Q 54.696 19.64 55.336 17.44 A 47.302 47.302 0 0 0 55.353 17.395 Q 55.848 16.061 55.95 15.537 A 1.198 1.198 0 0 0 55.976 15.32 L 55.996 15.1 A 0.513 0.513 0 0 1 56.003 15.048 Q 56.024 14.942 56.087 14.903 A 0.165 0.165 0 0 1 56.176 14.88 A 0.918 0.918 0 0 0 56.23 14.822 Q 56.277 14.766 56.306 14.71 A 0.43 0.43 0 0 0 56.356 14.56 Q 56.376 14.4 56.376 14.24 A 0.139 0.139 0 0 1 56.378 14.217 Q 56.398 14.104 56.576 13.66 Q 56.701 13.348 56.865 12.957 A 74.509 74.509 0 0 1 57.076 12.46 Q 57.376 11.76 57.656 11.14 Q 57.936 10.52 58.096 10.2 A 13.927 13.927 0 0 1 58.194 9.916 Q 58.242 9.781 58.288 9.662 A 6.762 6.762 0 0 1 58.396 9.4 Q 58.497 9.169 58.525 9.021 A 0.548 0.548 0 0 0 58.536 8.92 Q 58.536 8.76 58.896 8.06 Q 59.256 7.36 59.576 6.56 Q 60.336 4.96 60.696 4.2 Q 60.955 3.654 61.09 3.293 A 4.074 4.074 0 0 0 61.176 3.04 A 2.357 2.357 0 0 0 61.184 3.013 Q 61.242 2.812 61.27 2.581 A 3.834 3.834 0 0 0 61.296 2.12 A 7.283 7.283 0 0 0 61.295 1.987 Q 61.291 1.792 61.277 1.618 A 4.088 4.088 0 0 0 61.236 1.28 A 0.983 0.983 0 0 0 61.08 0.89 A 1.286 1.286 0 0 0 60.856 0.64 L 60.376 0.16 L 60.216 0 Q 60.056 0 59.876 0.04 A 0.717 0.717 0 0 0 59.832 0.051 A 0.586 0.586 0 0 0 59.576 0.2 A 1.125 1.125 0 0 0 59.471 0.205 Q 59.229 0.227 59.096 0.36 A 0.474 0.474 0 0 0 59.008 0.484 Q 58.969 0.561 58.951 0.66 A 1.02 1.02 0 0 0 58.936 0.84 A 0.31 0.31 0 0 1 58.936 0.852 Q 58.928 1.066 58.636 1.98 Q 58.449 2.567 58.191 3.319 A 115.508 115.508 0 0 1 57.856 4.28 Q 57.376 5.64 56.836 7.04 Q 56.296 8.44 55.836 9.58 A 38.291 38.291 0 0 1 55.628 10.086 Q 55.414 10.595 55.247 10.941 A 7.484 7.484 0 0 1 55.096 11.24 Q 55.096 11.4 54.996 11.56 A 0.732 0.732 0 0 0 54.939 11.67 A 0.55 0.55 0 0 0 54.896 11.88 A 0.549 0.549 0 0 1 54.895 11.904 Q 54.889 12.059 54.796 12.3 Q 54.738 12.45 54.714 12.581 A 0.977 0.977 0 0 0 54.696 12.76 A 0.641 0.641 0 0 0 54.653 12.808 Q 54.517 12.974 54.396 13.32 Q 54.319 13.539 54.285 13.734 A 1.75 1.75 0 0 0 54.256 14.04 A 1.317 1.317 0 0 1 54.244 14.215 A 1.471 1.471 0 0 1 54.136 14.6 A 1.097 1.097 0 0 1 54.108 14.661 Q 53.997 14.88 53.856 14.88 A 1.34 1.34 0 0 0 53.845 14.903 Q 53.776 15.046 53.607 15.47 A 51.158 51.158 0 0 0 53.516 15.7 A 21.472 21.472 0 0 0 53.499 15.743 Q 53.373 16.065 53.243 16.428 A 35.587 35.587 0 0 0 52.976 17.2 Q 52.696 18.04 52.456 18.82 A 26.939 26.939 0 0 0 52.352 19.165 Q 52.197 19.694 52.136 20 Q 52.136 20.193 52.079 20.47 A 5.19 5.19 0 0 1 52.016 20.74 Q 51.896 21.2 51.696 21.68 A 14.188 14.188 0 0 0 51.629 22.008 Q 51.437 23.012 51.44 23.821 A 6.029 6.029 0 0 0 51.456 24.24 Q 51.504 24.885 51.687 25.331 A 1.789 1.789 0 0 0 51.996 25.84 Q 52.388 26.283 52.998 26.203 Z M 37.656 15.36 L 37.656 15.12 Q 37.656 14.92 38.036 14.44 A 11.55 11.55 0 0 1 38.403 14.001 Q 38.661 13.706 38.976 13.38 Q 39.536 12.8 40.136 12.26 A 11.838 11.838 0 0 1 40.491 11.952 Q 40.822 11.678 41.077 11.516 A 3.039 3.039 0 0 1 41.136 11.48 A 4.397 4.397 0 0 1 42.151 10.971 A 3.774 3.774 0 0 1 42.876 10.8 A 2.516 2.516 0 0 1 43.162 10.778 Q 43.88 10.765 44.416 11.2 L 44.816 11.6 A 13.293 13.293 0 0 0 45.08 11.856 Q 45.217 11.986 45.371 12.126 A 22.562 22.562 0 0 0 45.476 12.22 A 359.52 359.52 0 0 1 46.25 12.914 A 396.211 396.211 0 0 1 46.256 12.92 L 47.736 14.24 L 47.016 16.24 Q 46.529 17.74 46.727 18.888 A 3.624 3.624 0 0 0 46.756 19.04 Q 47.016 20.24 47.536 21.12 A 1.437 1.437 0 0 0 47.762 21.464 Q 47.886 21.608 48.059 21.747 A 3.483 3.483 0 0 0 48.356 21.96 Q 48.895 22.308 49.39 22.414 A 2.156 2.156 0 0 0 49.536 22.44 Q 49.856 22.48 50.136 22.68 A 0.638 0.638 0 0 1 50.384 23.051 Q 50.413 23.161 50.416 23.293 A 1.348 1.348 0 0 1 50.416 23.32 A 1.629 1.629 0 0 1 50.397 23.576 Q 50.361 23.803 50.256 23.96 Q 50.096 24.2 49.696 24.28 A 3.613 3.613 0 0 1 49.261 24.307 Q 48.186 24.307 47.236 23.64 A 5.032 5.032 0 0 1 46.356 22.837 Q 45.714 22.107 45.136 21 Q 44.979 20.764 44.725 20.122 A 16.258 16.258 0 0 1 44.716 20.1 Q 44.507 19.569 44.44 19.336 A 1.246 1.246 0 0 1 44.416 19.24 A 36.18 36.18 0 0 1 44.326 19.352 Q 44.193 19.516 43.965 19.797 A 354.215 354.215 0 0 1 43.816 19.98 Q 43.376 20.52 43.136 20.76 A 33.837 33.837 0 0 1 41.518 22.303 Q 39.684 23.931 38.236 24.62 Q 37.151 25.136 36.26 25.136 A 2.6 2.6 0 0 1 34.816 24.72 A 1.616 1.616 0 0 0 34.648 24.451 A 1.226 1.226 0 0 0 34.416 24.22 A 1.1 1.1 0 0 1 34.317 24.137 Q 34.216 24.041 34.187 23.95 A 0.232 0.232 0 0 1 34.176 23.88 A 2.878 2.878 0 0 0 34.168 23.672 A 3.466 3.466 0 0 0 34.156 23.54 A 0.499 0.499 0 0 0 34.08 23.329 Q 34.042 23.267 33.984 23.208 A 0.893 0.893 0 0 0 33.976 23.2 Q 33.776 22.96 34.016 22.1 A 10.312 10.312 0 0 1 34.219 21.461 Q 34.334 21.134 34.483 20.764 A 24.37 24.37 0 0 1 34.816 19.98 A 34.61 34.61 0 0 1 35.573 18.392 A 42.934 42.934 0 0 1 36.136 17.32 A 3.546 3.546 0 0 0 36.414 17.005 Q 36.547 16.836 36.68 16.632 A 6.676 6.676 0 0 0 36.776 16.48 A 11.246 11.246 0 0 1 36.917 16.256 Q 37.134 15.923 37.256 15.8 Q 37.256 15.64 37.376 15.5 A 0.449 0.449 0 0 1 37.47 15.416 A 0.332 0.332 0 0 1 37.656 15.36 Z M 92.256 15.36 L 92.256 15.12 Q 92.256 14.92 92.636 14.44 A 11.55 11.55 0 0 1 93.003 14.001 Q 93.261 13.706 93.576 13.38 Q 94.136 12.8 94.736 12.26 A 11.838 11.838 0 0 1 95.091 11.952 Q 95.422 11.678 95.677 11.516 A 3.039 3.039 0 0 1 95.736 11.48 A 4.397 4.397 0 0 1 96.751 10.971 A 3.774 3.774 0 0 1 97.476 10.8 A 2.516 2.516 0 0 1 97.762 10.778 Q 98.48 10.765 99.016 11.2 L 99.416 11.6 A 13.293 13.293 0 0 0 99.68 11.856 Q 99.817 11.986 99.971 12.126 A 22.562 22.562 0 0 0 100.076 12.22 A 359.52 359.52 0 0 1 100.85 12.914 A 396.211 396.211 0 0 1 100.856 12.92 L 102.336 14.24 L 101.616 16.24 Q 101.129 17.74 101.327 18.888 A 3.624 3.624 0 0 0 101.356 19.04 Q 101.616 20.24 102.136 21.12 A 1.437 1.437 0 0 0 102.362 21.464 Q 102.486 21.608 102.659 21.747 A 3.483 3.483 0 0 0 102.956 21.96 Q 103.495 22.308 103.99 22.414 A 2.156 2.156 0 0 0 104.136 22.44 Q 104.456 22.48 104.736 22.68 A 0.638 0.638 0 0 1 104.984 23.051 Q 105.013 23.161 105.016 23.293 A 1.348 1.348 0 0 1 105.016 23.32 A 1.629 1.629 0 0 1 104.997 23.576 Q 104.961 23.803 104.856 23.96 Q 104.696 24.2 104.296 24.28 A 3.613 3.613 0 0 1 103.861 24.307 Q 102.786 24.307 101.836 23.64 A 5.032 5.032 0 0 1 100.956 22.837 Q 100.314 22.107 99.736 21 Q 99.579 20.764 99.325 20.122 A 16.258 16.258 0 0 1 99.316 20.1 Q 99.107 19.569 99.04 19.336 A 1.246 1.246 0 0 1 99.016 19.24 A 36.18 36.18 0 0 1 98.926 19.352 Q 98.793 19.516 98.565 19.797 A 354.215 354.215 0 0 1 98.416 19.98 Q 97.976 20.52 97.736 20.76 A 33.837 33.837 0 0 1 96.118 22.303 Q 94.284 23.931 92.836 24.62 Q 91.751 25.136 90.86 25.136 A 2.6 2.6 0 0 1 89.416 24.72 A 1.616 1.616 0 0 0 89.248 24.451 A 1.226 1.226 0 0 0 89.016 24.22 A 1.1 1.1 0 0 1 88.917 24.137 Q 88.816 24.041 88.787 23.95 A 0.232 0.232 0 0 1 88.776 23.88 A 2.878 2.878 0 0 0 88.768 23.672 A 3.466 3.466 0 0 0 88.756 23.54 A 0.499 0.499 0 0 0 88.68 23.329 Q 88.642 23.267 88.584 23.208 A 0.893 0.893 0 0 0 88.576 23.2 Q 88.376 22.96 88.616 22.1 A 10.312 10.312 0 0 1 88.819 21.461 Q 88.934 21.134 89.083 20.764 A 24.37 24.37 0 0 1 89.416 19.98 A 34.61 34.61 0 0 1 90.173 18.392 A 42.934 42.934 0 0 1 90.736 17.32 A 3.546 3.546 0 0 0 91.014 17.005 Q 91.147 16.836 91.28 16.632 A 6.676 6.676 0 0 0 91.376 16.48 A 11.246 11.246 0 0 1 91.517 16.256 Q 91.734 15.923 91.856 15.8 Q 91.856 15.64 91.976 15.5 A 0.449 0.449 0 0 1 92.07 15.416 A 0.332 0.332 0 0 1 92.256 15.36 Z M 14.376 24.76 Q 13.536 25.48 12.436 25.6 A 4.171 4.171 0 0 1 11.983 25.625 A 4.133 4.133 0 0 1 10.296 25.26 Q 9.256 24.8 8.576 23.84 Q 7.896 22.96 7.696 21.82 Q 7.496 20.682 7.655 18.846 A 20.801 20.801 0 0 1 7.656 18.84 A 7.085 7.085 0 0 1 8.141 16.784 A 8.998 8.998 0 0 1 8.656 15.7 Q 9.536 14.12 10.796 12.88 Q 11.855 11.838 12.899 11.333 A 5.327 5.327 0 0 1 13.296 11.16 A 3.35 3.35 0 0 1 13.605 10.976 Q 13.982 10.779 14.276 10.779 A 0.849 0.849 0 0 1 14.316 10.78 A 13.629 13.629 0 0 1 14.555 10.794 Q 14.946 10.819 15.584 10.877 A 86.747 86.747 0 0 1 15.616 10.88 Q 16.426 10.986 16.879 11.184 A 1.905 1.905 0 0 1 16.996 11.24 A 2.081 2.081 0 0 1 17.585 11.69 A 1.964 1.964 0 0 1 17.736 11.88 Q 18.336 12.48 18.536 13.06 Q 18.736 13.64 18.736 14.2 A 2.774 2.774 0 0 1 18.542 14.811 Q 18.245 15.489 17.556 16.34 A 7.331 7.331 0 0 1 15.724 17.943 A 9.023 9.023 0 0 1 14.896 18.4 A 5.262 5.262 0 0 1 13.645 18.632 Q 13.319 18.653 12.976 18.64 A 3.946 3.946 0 0 1 12.197 18.537 Q 11.704 18.417 11.32 18.164 A 2.453 2.453 0 0 1 11.256 18.12 Q 10.772 17.916 10.499 18.012 A 0.444 0.444 0 0 0 10.256 18.22 A 1.411 1.411 0 0 0 10.153 18.46 Q 10.013 18.871 9.887 19.715 A 22.939 22.939 0 0 0 9.816 20.24 A 8.773 8.773 0 0 0 9.782 20.651 Q 9.712 21.858 10.056 22.46 Q 10.456 23.16 11.136 23.28 A 35.882 35.882 0 0 0 11.515 23.354 Q 11.925 23.431 12.224 23.476 A 9.448 9.448 0 0 0 12.396 23.5 A 0.956 0.956 0 0 0 12.52 23.508 Q 12.936 23.508 13.512 23.174 A 4.32 4.32 0 0 0 13.536 23.16 A 26.715 26.715 0 0 1 13.759 23.022 Q 14.199 22.753 14.332 22.702 A 0.417 0.417 0 0 1 14.336 22.7 A 0.845 0.845 0 0 0 14.473 22.635 A 0.63 0.63 0 0 0 14.596 22.54 L 15.096 22.04 A 18.514 18.514 0 0 1 15.229 21.909 Q 15.372 21.768 15.476 21.674 A 4.264 4.264 0 0 1 15.536 21.62 A 0.57 0.57 0 0 1 15.714 21.512 A 0.521 0.521 0 0 1 15.896 21.48 Q 16.096 21.48 16.256 21.66 Q 16.416 21.84 16.576 21.92 A 0.477 0.477 0 0 1 16.677 21.93 Q 16.927 21.984 16.78 22.346 A 1.364 1.364 0 0 1 16.756 22.4 A 2.443 2.443 0 0 1 16.577 22.718 Q 16.37 23.034 16.016 23.414 A 8.97 8.97 0 0 1 15.896 23.54 A 7.816 7.816 0 0 1 14.953 24.363 A 9.493 9.493 0 0 1 14.376 24.76 Z M 147.376 24.76 Q 146.536 25.48 145.436 25.6 A 4.171 4.171 0 0 1 144.983 25.625 A 4.133 4.133 0 0 1 143.296 25.26 Q 142.256 24.8 141.576 23.84 Q 140.896 22.96 140.696 21.82 Q 140.496 20.682 140.655 18.846 A 20.801 20.801 0 0 1 140.656 18.84 A 7.085 7.085 0 0 1 141.141 16.784 A 8.998 8.998 0 0 1 141.656 15.7 Q 142.536 14.12 143.796 12.88 Q 144.855 11.838 145.899 11.333 A 5.327 5.327 0 0 1 146.296 11.16 A 3.35 3.35 0 0 1 146.605 10.976 Q 146.982 10.779 147.276 10.779 A 0.849 0.849 0 0 1 147.316 10.78 A 13.629 13.629 0 0 1 147.555 10.794 Q 147.946 10.819 148.584 10.877 A 86.747 86.747 0 0 1 148.616 10.88 Q 149.426 10.986 149.879 11.184 A 1.905 1.905 0 0 1 149.996 11.24 A 2.081 2.081 0 0 1 150.585 11.69 A 1.964 1.964 0 0 1 150.736 11.88 Q 151.336 12.48 151.536 13.06 Q 151.736 13.64 151.736 14.2 A 2.774 2.774 0 0 1 151.542 14.811 Q 151.245 15.489 150.556 16.34 A 7.331 7.331 0 0 1 148.724 17.943 A 9.023 9.023 0 0 1 147.896 18.4 A 5.262 5.262 0 0 1 146.645 18.632 Q 146.319 18.653 145.976 18.64 A 3.946 3.946 0 0 1 145.197 18.537 Q 144.704 18.417 144.32 18.164 A 2.453 2.453 0 0 1 144.256 18.12 Q 143.772 17.916 143.499 18.012 A 0.444 0.444 0 0 0 143.256 18.22 A 1.411 1.411 0 0 0 143.153 18.46 Q 143.013 18.871 142.887 19.715 A 22.939 22.939 0 0 0 142.816 20.24 A 8.773 8.773 0 0 0 142.782 20.651 Q 142.712 21.858 143.056 22.46 Q 143.456 23.16 144.136 23.28 A 35.882 35.882 0 0 0 144.515 23.354 Q 144.925 23.431 145.224 23.476 A 9.448 9.448 0 0 0 145.396 23.5 A 0.956 0.956 0 0 0 145.52 23.508 Q 145.936 23.508 146.512 23.174 A 4.32 4.32 0 0 0 146.536 23.16 A 26.715 26.715 0 0 1 146.759 23.022 Q 147.199 22.753 147.332 22.702 A 0.417 0.417 0 0 1 147.336 22.7 A 0.845 0.845 0 0 0 147.473 22.635 A 0.63 0.63 0 0 0 147.596 22.54 L 148.096 22.04 A 18.514 18.514 0 0 1 148.229 21.909 Q 148.372 21.768 148.476 21.674 A 4.264 4.264 0 0 1 148.536 21.62 A 0.57 0.57 0 0 1 148.714 21.512 A 0.521 0.521 0 0 1 148.896 21.48 Q 149.096 21.48 149.256 21.66 Q 149.416 21.84 149.576 21.92 A 0.477 0.477 0 0 1 149.677 21.93 Q 149.927 21.984 149.78 22.346 A 1.364 1.364 0 0 1 149.756 22.4 A 2.443 2.443 0 0 1 149.577 22.718 Q 149.37 23.034 149.016 23.414 A 8.97 8.97 0 0 1 148.896 23.54 A 7.816 7.816 0 0 1 147.953 24.363 A 9.493 9.493 0 0 1 147.376 24.76 Z M 174.776 24.76 Q 173.936 25.48 172.836 25.6 A 4.171 4.171 0 0 1 172.383 25.625 A 4.133 4.133 0 0 1 170.696 25.26 Q 169.656 24.8 168.976 23.84 Q 168.296 22.96 168.096 21.82 Q 167.896 20.682 168.055 18.846 A 20.801 20.801 0 0 1 168.056 18.84 A 7.085 7.085 0 0 1 168.541 16.784 A 8.998 8.998 0 0 1 169.056 15.7 Q 169.936 14.12 171.196 12.88 Q 172.255 11.838 173.299 11.333 A 5.327 5.327 0 0 1 173.696 11.16 A 3.35 3.35 0 0 1 174.005 10.976 Q 174.382 10.779 174.676 10.779 A 0.849 0.849 0 0 1 174.716 10.78 A 13.629 13.629 0 0 1 174.955 10.794 Q 175.346 10.819 175.984 10.877 A 86.747 86.747 0 0 1 176.016 10.88 Q 176.826 10.986 177.279 11.184 A 1.905 1.905 0 0 1 177.396 11.24 A 2.081 2.081 0 0 1 177.985 11.69 A 1.964 1.964 0 0 1 178.136 11.88 Q 178.736 12.48 178.936 13.06 Q 179.136 13.64 179.136 14.2 A 2.774 2.774 0 0 1 178.942 14.811 Q 178.645 15.489 177.956 16.34 A 7.331 7.331 0 0 1 176.124 17.943 A 9.023 9.023 0 0 1 175.296 18.4 A 5.262 5.262 0 0 1 174.045 18.632 Q 173.719 18.653 173.376 18.64 A 3.946 3.946 0 0 1 172.597 18.537 Q 172.104 18.417 171.72 18.164 A 2.453 2.453 0 0 1 171.656 18.12 Q 171.172 17.916 170.899 18.012 A 0.444 0.444 0 0 0 170.656 18.22 A 1.411 1.411 0 0 0 170.553 18.46 Q 170.413 18.871 170.287 19.715 A 22.939 22.939 0 0 0 170.216 20.24 A 8.773 8.773 0 0 0 170.182 20.651 Q 170.112 21.858 170.456 22.46 Q 170.856 23.16 171.536 23.28 A 35.882 35.882 0 0 0 171.915 23.354 Q 172.325 23.431 172.624 23.476 A 9.448 9.448 0 0 0 172.796 23.5 A 0.956 0.956 0 0 0 172.92 23.508 Q 173.336 23.508 173.912 23.174 A 4.32 4.32 0 0 0 173.936 23.16 A 26.715 26.715 0 0 1 174.159 23.022 Q 174.599 22.753 174.732 22.702 A 0.417 0.417 0 0 1 174.736 22.7 A 0.845 0.845 0 0 0 174.873 22.635 A 0.63 0.63 0 0 0 174.996 22.54 L 175.496 22.04 A 18.514 18.514 0 0 1 175.629 21.909 Q 175.772 21.768 175.876 21.674 A 4.264 4.264 0 0 1 175.936 21.62 A 0.57 0.57 0 0 1 176.114 21.512 A 0.521 0.521 0 0 1 176.296 21.48 Q 176.496 21.48 176.656 21.66 Q 176.816 21.84 176.976 21.92 A 0.477 0.477 0 0 1 177.077 21.93 Q 177.327 21.984 177.18 22.346 A 1.364 1.364 0 0 1 177.156 22.4 A 2.443 2.443 0 0 1 176.977 22.718 Q 176.77 23.034 176.416 23.414 A 8.97 8.97 0 0 1 176.296 23.54 A 7.816 7.816 0 0 1 175.353 24.363 A 9.493 9.493 0 0 1 174.776 24.76 Z M 153.874 24.568 A 2.524 2.524 0 0 0 154.096 24.76 Q 154.569 25.233 154.867 25.356 A 0.502 0.502 0 0 0 155.056 25.4 Q 155.376 25.4 155.856 24.76 A 2.755 2.755 0 0 0 156.023 24.522 A 2.217 2.217 0 0 0 156.256 24.02 L 156.376 23.64 A 0.269 0.269 0 0 1 156.376 23.628 Q 156.381 23.519 156.468 23.115 A 24.034 24.034 0 0 1 156.516 22.9 Q 156.656 22.28 156.856 21.6 Q 157.056 20.92 157.256 20.72 Q 157.576 20.2 157.856 19.76 Q 158.136 19.32 158.416 19 A 14.287 14.287 0 0 1 159.473 17.955 A 11.164 11.164 0 0 1 161.076 16.76 A 139.597 139.597 0 0 1 161.775 16.337 A 158.396 158.396 0 0 1 163.976 15.04 A 61.377 61.377 0 0 1 164.31 14.898 Q 164.661 14.75 164.936 14.64 A 2.704 2.704 0 0 1 165.37 14.509 A 3.615 3.615 0 0 1 165.856 14.44 A 20.621 20.621 0 0 0 166.243 14.412 Q 166.426 14.397 166.586 14.381 A 9.173 9.173 0 0 0 166.916 14.34 A 1.017 1.017 0 0 0 167.051 14.312 Q 167.129 14.29 167.186 14.256 A 0.281 0.281 0 0 0 167.336 14 L 167.316 13.88 A 0.184 0.184 0 0 0 167.315 13.876 Q 167.293 13.76 167.136 13.76 L 166.916 13.6 A 0.603 0.603 0 0 1 166.708 13.329 A 0.847 0.847 0 0 1 166.656 13.12 Q 166.416 12.52 165.456 12.4 A 3.299 3.299 0 0 0 165.046 12.374 Q 164.836 12.374 164.628 12.402 A 3.479 3.479 0 0 0 163.576 12.72 Q 163.456 12.78 163.189 12.874 A 12.25 12.25 0 0 1 162.996 12.94 A 3.992 3.992 0 0 0 162.671 13.064 A 3.13 3.13 0 0 0 162.256 13.28 A 1.922 1.922 0 0 0 162.183 13.319 Q 161.928 13.46 161.376 13.84 Q 160.736 14.28 160.016 14.84 A 25.643 25.643 0 0 0 159.994 14.858 A 23.574 23.574 0 0 0 158.656 15.98 A 8.469 8.469 0 0 0 158.536 16.091 Q 158.181 16.426 157.965 16.711 A 2.362 2.362 0 0 0 157.776 17 A 2.199 2.199 0 0 1 157.702 17.045 Q 157.53 17.142 157.46 17.132 A 0.051 0.051 0 0 1 157.416 17.1 Q 157.376 17 157.616 16.46 L 158.336 14.84 Q 159.026 13.4 159.367 12.534 A 10.365 10.365 0 0 0 159.556 12.02 Q 159.721 11.526 159.662 11.194 A 0.697 0.697 0 0 0 159.416 10.76 Q 159.096 10.44 158.636 10.4 A 1.484 1.484 0 0 0 158.507 10.394 Q 158.454 10.394 158.403 10.398 A 1.029 1.029 0 0 0 157.856 10.6 A 6.106 6.106 0 0 0 157.71 10.83 Q 157.465 11.237 157.166 11.849 A 26.528 26.528 0 0 0 156.896 12.42 A 63.928 63.928 0 0 0 156.616 13.039 A 73.393 73.393 0 0 0 155.776 15 Q 155.216 16.36 154.836 17.52 A 39.222 39.222 0 0 0 154.81 17.599 Q 154.453 18.696 154.376 19.16 A 174.238 174.238 0 0 0 154.299 19.47 Q 154.185 19.927 154.086 20.338 A 99.517 99.517 0 0 0 153.896 21.14 Q 153.784 21.624 153.696 22.19 A 20.385 20.385 0 0 0 153.576 23.12 A 6.199 6.199 0 0 0 153.546 23.35 Q 153.493 23.823 153.552 24.072 A 0.588 0.588 0 0 0 153.596 24.2 Q 153.688 24.384 153.874 24.568 Z M 181.274 24.568 A 2.524 2.524 0 0 0 181.496 24.76 Q 181.969 25.233 182.267 25.356 A 0.502 0.502 0 0 0 182.456 25.4 Q 182.776 25.4 183.256 24.76 A 2.755 2.755 0 0 0 183.423 24.522 A 2.217 2.217 0 0 0 183.656 24.02 L 183.776 23.64 A 0.269 0.269 0 0 1 183.776 23.628 Q 183.781 23.519 183.868 23.115 A 24.034 24.034 0 0 1 183.916 22.9 Q 184.056 22.28 184.256 21.6 Q 184.456 20.92 184.656 20.72 Q 184.976 20.2 185.256 19.76 Q 185.536 19.32 185.816 19 A 14.287 14.287 0 0 1 186.873 17.955 A 11.164 11.164 0 0 1 188.476 16.76 A 139.597 139.597 0 0 1 189.175 16.337 A 158.396 158.396 0 0 1 191.376 15.04 A 61.377 61.377 0 0 1 191.71 14.898 Q 192.061 14.75 192.336 14.64 A 2.704 2.704 0 0 1 192.77 14.509 A 3.615 3.615 0 0 1 193.256 14.44 A 20.621 20.621 0 0 0 193.643 14.412 Q 193.826 14.397 193.986 14.381 A 9.173 9.173 0 0 0 194.316 14.34 A 1.017 1.017 0 0 0 194.451 14.312 Q 194.529 14.29 194.586 14.256 A 0.281 0.281 0 0 0 194.736 14 L 194.716 13.88 A 0.184 0.184 0 0 0 194.715 13.876 Q 194.693 13.76 194.536 13.76 L 194.316 13.6 A 0.603 0.603 0 0 1 194.108 13.329 A 0.847 0.847 0 0 1 194.056 13.12 Q 193.816 12.52 192.856 12.4 A 3.299 3.299 0 0 0 192.446 12.374 Q 192.236 12.374 192.028 12.402 A 3.479 3.479 0 0 0 190.976 12.72 Q 190.856 12.78 190.589 12.874 A 12.25 12.25 0 0 1 190.396 12.94 A 3.992 3.992 0 0 0 190.071 13.064 A 3.13 3.13 0 0 0 189.656 13.28 A 1.922 1.922 0 0 0 189.583 13.319 Q 189.328 13.46 188.776 13.84 Q 188.136 14.28 187.416 14.84 A 25.643 25.643 0 0 0 187.394 14.858 A 23.574 23.574 0 0 0 186.056 15.98 A 8.469 8.469 0 0 0 185.936 16.091 Q 185.581 16.426 185.365 16.711 A 2.362 2.362 0 0 0 185.176 17 A 2.199 2.199 0 0 1 185.102 17.045 Q 184.93 17.142 184.86 17.132 A 0.051 0.051 0 0 1 184.816 17.1 Q 184.776 17 185.016 16.46 L 185.736 14.84 Q 186.426 13.4 186.767 12.534 A 10.365 10.365 0 0 0 186.956 12.02 Q 187.121 11.526 187.062 11.194 A 0.697 0.697 0 0 0 186.816 10.76 Q 186.496 10.44 186.036 10.4 A 1.484 1.484 0 0 0 185.907 10.394 Q 185.854 10.394 185.803 10.398 A 1.029 1.029 0 0 0 185.256 10.6 A 6.106 6.106 0 0 0 185.11 10.83 Q 184.865 11.237 184.566 11.849 A 26.528 26.528 0 0 0 184.296 12.42 A 63.928 63.928 0 0 0 184.016 13.039 A 73.393 73.393 0 0 0 183.176 15 Q 182.616 16.36 182.236 17.52 A 39.222 39.222 0 0 0 182.21 17.599 Q 181.853 18.696 181.776 19.16 A 174.238 174.238 0 0 0 181.699 19.47 Q 181.585 19.927 181.486 20.338 A 99.517 99.517 0 0 0 181.296 21.14 Q 181.184 21.624 181.096 22.19 A 20.385 20.385 0 0 0 180.976 23.12 A 6.199 6.199 0 0 0 180.946 23.35 Q 180.893 23.823 180.952 24.072 A 0.588 0.588 0 0 0 180.996 24.2 Q 181.088 24.384 181.274 24.568 Z M 43.936 16.2 L 44.816 14.76 A 5.644 5.644 0 0 0 44.586 14.288 Q 44.331 13.825 44.053 13.579 A 1.419 1.419 0 0 0 43.956 13.5 A 2.729 2.729 0 0 0 43.715 13.339 Q 43.409 13.16 43.176 13.16 Q 42.656 13.16 41.636 14.12 A 13.107 13.107 0 0 0 40.851 14.93 Q 40.181 15.68 39.456 16.68 A 30.521 30.521 0 0 0 37.817 19.203 A 35.494 35.494 0 0 0 37.256 20.2 A 23.023 23.023 0 0 0 36.795 21.177 A 19.409 19.409 0 0 0 36.556 21.74 L 36.256 22.48 A 0.117 0.117 0 0 0 36.344 22.6 Q 36.512 22.658 37.003 22.498 A 5.596 5.596 0 0 0 37.116 22.46 A 4.78 4.78 0 0 0 37.838 22.134 Q 38.382 21.835 38.976 21.36 A 41.948 41.948 0 0 0 41.027 19.485 A 48.37 48.37 0 0 0 41.716 18.8 A 26.819 26.819 0 0 0 42.748 17.696 Q 43.437 16.913 43.936 16.2 Z M 98.536 16.2 L 99.416 14.76 A 5.644 5.644 0 0 0 99.186 14.288 Q 98.931 13.825 98.653 13.579 A 1.419 1.419 0 0 0 98.556 13.5 A 2.729 2.729 0 0 0 98.315 13.339 Q 98.009 13.16 97.776 13.16 Q 97.256 13.16 96.236 14.12 A 13.107 13.107 0 0 0 95.451 14.93 Q 94.781 15.68 94.056 16.68 A 30.521 30.521 0 0 0 92.417 19.203 A 35.494 35.494 0 0 0 91.856 20.2 A 23.023 23.023 0 0 0 91.395 21.177 A 19.409 19.409 0 0 0 91.156 21.74 L 90.856 22.48 A 0.117 0.117 0 0 0 90.944 22.6 Q 91.112 22.658 91.603 22.498 A 5.596 5.596 0 0 0 91.716 22.46 A 4.78 4.78 0 0 0 92.438 22.134 Q 92.982 21.835 93.576 21.36 A 41.948 41.948 0 0 0 95.627 19.485 A 48.37 48.37 0 0 0 96.316 18.8 A 26.819 26.819 0 0 0 97.348 17.696 Q 98.037 16.913 98.536 16.2 Z M 128.336 22.48 A 3.551 3.551 0 0 0 129.216 22.162 A 4.154 4.154 0 0 0 129.436 22.04 A 12.589 12.589 0 0 0 130.062 21.642 A 16.235 16.235 0 0 0 130.576 21.28 Q 131.776 20.36 132.656 19.6 Q 133.399 18.959 133.714 17.748 A 6.209 6.209 0 0 0 133.816 17.28 A 3.928 3.928 0 0 0 133.834 17.036 Q 133.856 16.522 133.721 16.164 A 1.364 1.364 0 0 0 133.676 16.06 A 2.267 2.267 0 0 0 133.346 15.561 A 3.118 3.118 0 0 0 132.976 15.2 A 1.511 1.511 0 0 0 132.499 14.995 Q 132.143 14.906 131.676 14.94 A 2.154 2.154 0 0 0 130.922 15.146 Q 130.632 15.281 130.335 15.503 A 4.845 4.845 0 0 0 129.976 15.8 Q 129.151 16.556 128.37 17.756 A 15.585 15.585 0 0 0 128.116 18.16 Q 127.272 19.547 126.833 21.532 A 16.171 16.171 0 0 0 126.776 21.8 A 0.824 0.824 0 0 0 126.762 21.905 Q 126.739 22.232 127.016 22.44 Q 127.329 22.675 128.295 22.488 A 6.812 6.812 0 0 0 128.336 22.48 Z M 23.096 21 Q 23.896 20.96 24.616 20.68 A 3.7 3.7 0 0 0 25.402 20.252 A 5.083 5.083 0 0 0 26.016 19.74 Q 26.6 19.173 27.185 18.325 A 14.064 14.064 0 0 0 27.376 18.04 Q 28.056 17.08 28.336 16.02 A 6.489 6.489 0 0 0 28.54 14.804 Q 28.554 14.604 28.554 14.407 A 5.608 5.608 0 0 0 28.536 13.96 Q 28.498 13.351 28.351 13.14 A 0.384 0.384 0 0 0 28.336 13.12 Q 28.183 12.929 27.704 12.993 A 2.364 2.364 0 0 0 27.656 13 Q 27.099 13.088 26.455 13.488 A 6.198 6.198 0 0 0 25.976 13.82 A 8.696 8.696 0 0 0 24.794 14.914 A 10.594 10.594 0 0 0 24.256 15.56 A 6.481 6.481 0 0 0 23.629 16.592 A 8.457 8.457 0 0 0 23.256 17.48 Q 22.856 18.68 22.776 19.76 A 5.143 5.143 0 0 0 22.766 19.923 Q 22.737 20.612 22.933 20.872 A 0.38 0.38 0 0 0 23.096 21 Z M 14.336 16.28 Q 14.776 16.08 15.256 15.7 A 4.502 4.502 0 0 0 15.966 15.002 A 4.122 4.122 0 0 0 16.076 14.86 A 2.729 2.729 0 0 0 16.237 14.619 Q 16.416 14.313 16.416 14.08 A 1.074 1.074 0 0 0 16.066 13.282 A 1.616 1.616 0 0 0 15.896 13.14 A 1.098 1.098 0 0 0 15.48 12.957 Q 15.074 12.868 14.492 13.001 A 4.298 4.298 0 0 0 14.336 13.04 Q 14.037 13.122 13.682 13.36 A 4.566 4.566 0 0 0 13.336 13.62 Q 12.776 14.08 12.276 14.64 Q 11.893 15.069 11.628 15.427 A 6.661 6.661 0 0 0 11.476 15.64 A 4.086 4.086 0 0 0 11.396 15.762 Q 11.214 16.05 11.243 16.139 A 0.053 0.053 0 0 0 11.256 16.16 Q 11.376 16.36 11.936 16.46 Q 12.476 16.556 13.146 16.523 A 7.367 7.367 0 0 0 13.196 16.52 A 4.629 4.629 0 0 0 13.666 16.471 Q 13.884 16.435 14.069 16.38 A 2.149 2.149 0 0 0 14.336 16.28 Z M 147.336 16.28 Q 147.776 16.08 148.256 15.7 A 4.502 4.502 0 0 0 148.966 15.002 A 4.122 4.122 0 0 0 149.076 14.86 A 2.729 2.729 0 0 0 149.237 14.619 Q 149.416 14.313 149.416 14.08 A 1.074 1.074 0 0 0 149.066 13.282 A 1.616 1.616 0 0 0 148.896 13.14 A 1.098 1.098 0 0 0 148.48 12.957 Q 148.074 12.868 147.492 13.001 A 4.298 4.298 0 0 0 147.336 13.04 Q 147.037 13.122 146.682 13.36 A 4.566 4.566 0 0 0 146.336 13.62 Q 145.776 14.08 145.276 14.64 Q 144.893 15.069 144.628 15.427 A 6.661 6.661 0 0 0 144.476 15.64 A 4.086 4.086 0 0 0 144.396 15.762 Q 144.214 16.05 144.243 16.139 A 0.053 0.053 0 0 0 144.256 16.16 Q 144.376 16.36 144.936 16.46 Q 145.476 16.556 146.146 16.523 A 7.367 7.367 0 0 0 146.196 16.52 A 4.629 4.629 0 0 0 146.666 16.471 Q 146.884 16.435 147.069 16.38 A 2.149 2.149 0 0 0 147.336 16.28 Z M 174.736 16.28 Q 175.176 16.08 175.656 15.7 A 4.502 4.502 0 0 0 176.366 15.002 A 4.122 4.122 0 0 0 176.476 14.86 A 2.729 2.729 0 0 0 176.637 14.619 Q 176.816 14.313 176.816 14.08 A 1.074 1.074 0 0 0 176.466 13.282 A 1.616 1.616 0 0 0 176.296 13.14 A 1.098 1.098 0 0 0 175.88 12.957 Q 175.474 12.868 174.892 13.001 A 4.298 4.298 0 0 0 174.736 13.04 Q 174.437 13.122 174.082 13.36 A 4.566 4.566 0 0 0 173.736 13.62 Q 173.176 14.08 172.676 14.64 Q 172.293 15.069 172.028 15.427 A 6.661 6.661 0 0 0 171.876 15.64 A 4.086 4.086 0 0 0 171.796 15.762 Q 171.614 16.05 171.643 16.139 A 0.053 0.053 0 0 0 171.656 16.16 Q 171.776 16.36 172.336 16.46 Q 172.876 16.556 173.546 16.523 A 7.367 7.367 0 0 0 173.596 16.52 A 4.629 4.629 0 0 0 174.066 16.471 Q 174.284 16.435 174.469 16.38 A 2.149 2.149 0 0 0 174.736 16.28 Z" vector-effect="non-scaling-stroke"/></g></svg>